<?xml version="1.0" encoding="UTF-8" standalone="no"?>
<!-- Created with Inkscape (http://www.inkscape.org/) -->
<svg
   xmlns:dc="http://purl.org/dc/elements/1.1/"
   xmlns:cc="http://creativecommons.org/ns#"
   xmlns:rdf="http://www.w3.org/1999/02/22-rdf-syntax-ns#"
   xmlns:svg="http://www.w3.org/2000/svg"
   xmlns="http://www.w3.org/2000/svg"
   xmlns:xlink="http://www.w3.org/1999/xlink"
   xmlns:sodipodi="http://sodipodi.sourceforge.net/DTD/sodipodi-0.dtd"
   xmlns:inkscape="http://www.inkscape.org/namespaces/inkscape"
   width="640"
   height="320"
   id="svg2283"
   sodipodi:version="0.32"
   inkscape:version="0.46"
   sodipodi:docbase="/home/shiki/www/XV_Semana_Infomatica"
   sodipodi:docname="es-0-1-1.svg"
   version="1.0"
   inkscape:output_extension="org.inkscape.output.svg.inkscape"
   inkscape:export-filename="/home/shiki/es/html/XV_Semana_Informatica/es-0-1-1.png"
   inkscape:export-xdpi="90"
   inkscape:export-ydpi="90">
  <defs
     id="defs2285">
    <inkscape:perspective
       sodipodi:type="inkscape:persp3d"
       inkscape:vp_x="0 : 160 : 1"
       inkscape:vp_y="0 : 1000 : 0"
       inkscape:vp_z="640 : 160 : 1"
       inkscape:persp3d-origin="320 : 106.66667 : 1"
       id="perspective59" />
    <linearGradient
       id="linearGradient3341">
      <stop
         style="stop-color:#1af081;stop-opacity:1;"
         offset="0"
         id="stop3343" />
      <stop
         style="stop-color:#e21ae0;stop-opacity:0.7019608;"
         offset="1"
         id="stop3345" />
    </linearGradient>
    <linearGradient
       id="linearGradient3335">
      <stop
         id="stop3337"
         offset="0"
         style="stop-color:#1af081;stop-opacity:1;" />
      <stop
         id="stop3339"
         offset="1"
         style="stop-color:#f3f293;stop-opacity:1;" />
    </linearGradient>
    <linearGradient
       id="linearGradient2460">
      <stop
         style="stop-color:#1af081;stop-opacity:1;"
         offset="0"
         id="stop2462" />
      <stop
         style="stop-color:#e21ae0;stop-opacity:0.7019608;"
         offset="1"
         id="stop2464" />
    </linearGradient>
    <marker
       inkscape:stockid="TriangleOutS"
       orient="auto"
       refY="0"
       refX="0"
       id="TriangleOutS"
       style="overflow:visible">
      <path
         id="path2271"
         d="M 5.77,0 L -2.88,5 L -2.88,-5 L 5.77,0 z "
         style="fill-rule:evenodd;stroke:#000000;stroke-width:1pt;marker-start:none"
         transform="scale(0.2,0.2)" />
    </marker>
    <marker
       inkscape:stockid="DistanceOut"
       orient="auto"
       refY="0"
       refX="0"
       id="DistanceOut"
       style="overflow:visible">
      <g
         id="g2316"
         transform="matrix(-0.6,0,0,0.6,-4.8,0)">
        <path
           id="path2318"
           d="M 0,0 L 5,-5 L -12.5,0 L 5,5 L 0,0 z "
           style="fill-rule:evenodd;stroke:#000000;stroke-width:1pt;marker-start:none" />
        <path
           id="path2320"
           d="M -14.759949,-7 L -14.759949,65"
           style="fill:none;fill-opacity:0.75;fill-rule:evenodd;stroke:#000000;stroke-width:1.2pt;marker-start:none" />
      </g>
    </marker>
    <marker
       inkscape:stockid="Arrow1Mstart"
       orient="auto"
       refY="0"
       refX="0"
       id="Arrow1Mstart"
       style="overflow:visible">
      <path
         id="path2372"
         d="M 0,0 L 5,-5 L -12.5,0 L 5,5 L 0,0 z "
         style="fill-rule:evenodd;stroke:#000000;stroke-width:1pt;marker-start:none"
         transform="scale(0.4,0.4)" />
    </marker>
    <marker
       inkscape:stockid="Arrow2Lend"
       orient="auto"
       refY="0"
       refX="0"
       id="Arrow2Lend"
       style="overflow:visible">
      <path
         id="path2357"
         style="font-size:12px;fill-rule:evenodd;stroke-width:0.625;stroke-linejoin:round"
         d="M 8.7185878,4.0337352 L -2.2072895,0.016013256 L 8.7185884,-4.0017078 C 6.97309,-1.6296469 6.9831476,1.6157441 8.7185878,4.0337352 z "
         transform="matrix(-1.1,0,0,-1.1,5.5,0)" />
    </marker>
    <linearGradient
       inkscape:collect="always"
       xlink:href="#linearGradient2460"
       id="linearGradient2478"
       x1="160.36053"
       y1="377.15335"
       x2="393.33228"
       y2="377.15335"
       gradientUnits="userSpaceOnUse"
       gradientTransform="matrix(-1,0,0,1.487855,552.9857,-318.6218)" />
    <linearGradient
       inkscape:collect="always"
       xlink:href="#linearGradient3335"
       id="linearGradient3353"
       x1="134.68086"
       y1="161.19705"
       x2="242.81471"
       y2="161.19705"
       gradientUnits="userSpaceOnUse"
       gradientTransform="matrix(0.57071,0,0,0.908782,313.0276,-12.2959)" />
  </defs>
  <sodipodi:namedview
     id="base"
     pagecolor="#ffffff"
     bordercolor="#666666"
     borderopacity="1.0"
     inkscape:pageopacity="0.0"
     inkscape:pageshadow="2"
     inkscape:zoom="1"
     inkscape:cx="305.71383"
     inkscape:cy="109.24197"
     inkscape:current-layer="layer1"
     inkscape:document-units="px"
     inkscape:window-width="942"
     inkscape:window-height="1098"
     inkscape:window-x="793"
     inkscape:window-y="313"
     showgrid="false" />
  <metadata
     id="metadata2288">
    <rdf:RDF>
      <cc:Work
         rdf:about="">
        <dc:format>image/svg+xml</dc:format>
        <dc:type
           rdf:resource="http://purl.org/dc/dcmitype/StillImage" />
      </cc:Work>
    </rdf:RDF>
  </metadata>
  <g
     id="layer1"
     inkscape:label="Layer 1"
     inkscape:groupmode="layer">
    <path
       style="fill:#78c2f4;fill-opacity:1;fill-rule:evenodd;stroke:none;stroke-width:0.64296138px;stroke-linecap:butt;stroke-linejoin:miter;stroke-opacity:1"
       d="M 58.79438,72.85495 L 227.20562,72.85495 L 227.20562,125.14505 L 58.79438,125.14505 L 58.79438,72.85495 z "
       id="path1543" />
    <path
       style="fill:#78c2f4;fill-opacity:1;fill-rule:evenodd;stroke:none;stroke-width:0.64296138px;stroke-linecap:butt;stroke-linejoin:miter;stroke-opacity:1"
       d="M 237.79438,72.85495 L 406.20562,72.85495 L 406.20562,125.14505 L 237.79438,125.14505 L 237.79438,72.85495 z "
       id="path1751" />
    <path
       style="fill:#78c2f4;fill-opacity:1;fill-rule:evenodd;stroke:none;stroke-width:0.64296138px;stroke-linecap:butt;stroke-linejoin:miter;stroke-opacity:1"
       d="M 415.79438,72.85495 L 584.20562,72.85495 L 584.20562,125.14505 L 415.79438,125.14505 L 415.79438,72.85495 z "
       id="path1753" />
    <rect
       style="fill:#389ced;fill-opacity:1;fill-rule:evenodd;stroke:none;stroke-width:0.64296138px;stroke-linecap:butt;stroke-linejoin:miter;stroke-opacity:1"
       id="rect2343"
       width="168.41121"
       height="52.290096"
       x="415.74841"
       y="133.38861" />
    <rect
       style="fill:#389ced;fill-opacity:1;fill-rule:evenodd;stroke:none;stroke-width:0.64296138px;stroke-linecap:butt;stroke-linejoin:miter;stroke-opacity:1"
       id="rect1507"
       width="168.41121"
       height="52.290096"
       x="237.79437"
       y="133.13589" />
    <rect
       style="fill:#004f9f;fill-opacity:1;fill-rule:evenodd;stroke:none;stroke-width:0.64296138px;stroke-linecap:butt;stroke-linejoin:miter;stroke-opacity:1"
       id="rect1513"
       width="523.41119"
       height="52.290096"
       x="59.294403"
       y="190.57401" />
    <rect
       style="fill:#389ced;fill-opacity:1;fill-rule:evenodd;stroke:none;stroke-width:0.64296138px;stroke-linecap:butt;stroke-linejoin:miter;stroke-opacity:1"
       id="rect1519"
       width="168.41121"
       height="52.290096"
       x="58.794403"
       y="133.13589" />
    <text
       xml:space="preserve"
       style="font-size:18px;font-style:normal;font-variant:normal;font-weight:normal;font-stretch:normal;text-align:start;line-height:125%;writing-mode:lr-tb;text-anchor:start;fill:#ffffff;fill-opacity:1;stroke:none;stroke-width:1px;stroke-linecap:butt;stroke-linejoin:miter;stroke-opacity:1;font-family:Bitstream Vera Sans"
       x="109.02588"
       y="104.70161"
       id="text2393"
       sodipodi:linespacing="125%"><tspan
         sodipodi:role="line"
         id="tspan2395"
         x="109.02588"
         y="104.70161"
         style="fill:#000000;fill-opacity:1">Squeak</tspan></text>
    <text
       xml:space="preserve"
       style="font-size:18px;font-style:normal;font-variant:normal;font-weight:normal;font-stretch:normal;text-align:start;line-height:125%;writing-mode:lr-tb;text-anchor:start;fill:#ffffff;fill-opacity:1;stroke:none;stroke-width:1px;stroke-linecap:butt;stroke-linejoin:miter;stroke-opacity:1;font-family:Bitstream Vera Sans"
       x="461.99609"
       y="102.96582"
       id="text1640"
       sodipodi:linespacing="125%"><tspan
         sodipodi:role="line"
         id="tspan1642"
         x="461.99609"
         y="102.96582"
         style="fill:#000000;fill-opacity:1">Figure.js</tspan></text>
    <path
       style="opacity:1;fill:#de2ad5;fill-opacity:0.68539327;fill-rule:nonzero;stroke:#ee00e1;stroke-width:1.13553786;stroke-miterlimit:1.10000002;stroke-dasharray:none;stroke-opacity:1"
       d="M 162.25755,171.64236 C 162.25612,171.64251 162.25899,171.64799 162.25755,171.64817 C 162.25612,171.64838 162.24872,171.64792 162.24729,171.64817 C 162.24588,171.64845 162.23845,171.64785 162.23704,171.64817 C 162.23564,171.64855 162.22818,171.65354 162.22678,171.65397 C 162.2254,171.65443 162.2179,171.65347 162.21652,171.65397 C 162.21516,171.6545 162.20762,171.6592 162.20627,171.65977 C 162.20493,171.66041 162.19733,171.6649 162.19601,171.66557 C 162.1803,171.67409 162.16823,171.68674 162.15498,171.70038 L 154.10305,179.97364 C 154.03237,180.04637 154.03237,180.16779 154.10305,180.24052 L 160.30868,180.24052 L 160.30868,203.02969 L 164.24746,203.02969 L 164.24746,180.24052 L 170.45309,180.24052 C 170.52376,180.16779 170.52376,180.04636 170.45309,179.97364 L 162.41141,171.70038 C 162.39816,171.68674 162.37584,171.67409 162.36012,171.66557 C 162.3588,171.6649 162.3512,171.66041 162.34987,171.65977 C 162.34851,171.6592 162.34098,171.6545 162.33961,171.65397 C 162.33545,171.65258 162.32332,171.64923 162.3191,171.64817 C 162.31768,171.64785 162.31026,171.64845 162.30884,171.64817 C 162.30455,171.64753 162.29264,171.64268 162.28832,171.64236 C 162.28688,171.64233 162.27951,171.64236 162.27807,171.64236 C 162.27663,171.6424 162.26925,171.64229 162.26781,171.64236 C 162.26637,171.64247 162.25899,171.64222 162.25755,171.64236 z "
       id="rect2417" />
    <path
       style="opacity:1;fill:#13f527;fill-opacity:0.68539327;fill-rule:nonzero;stroke:#00ee00;stroke-width:1.13553786;stroke-miterlimit:1.10000002;stroke-dasharray:none;stroke-opacity:1"
       d="M 194.47487,203.02965 C 194.4763,203.0295 194.47343,203.02402 194.47487,203.02384 C 194.4763,203.02363 194.4837,203.02409 194.48513,203.02384 C 194.48654,203.02356 194.49397,203.02416 194.49538,203.02384 C 194.49678,203.02346 194.50424,203.01847 194.50564,203.01804 C 194.50702,203.01758 194.51452,203.01854 194.5159,203.01804 C 194.51726,203.01751 194.5248,203.01281 194.52615,203.01224 C 194.52749,203.0116 194.53509,203.00711 194.53641,203.00644 C 194.55212,202.99792 194.56419,202.98527 194.57744,202.97163 L 202.62937,194.69837 C 202.70005,194.62564 202.70005,194.50422 202.62937,194.43149 L 196.42374,194.43149 L 196.42374,171.64232 L 192.48496,171.64232 L 192.48496,194.43149 L 186.27933,194.43149 C 186.20866,194.50422 186.20866,194.62565 186.27933,194.69837 L 194.32101,202.97163 C 194.33426,202.98527 194.35658,202.99792 194.3723,203.00644 C 194.37362,203.00711 194.38122,203.0116 194.38255,203.01224 C 194.38391,203.01281 194.39144,203.01751 194.39281,203.01804 C 194.39697,203.01943 194.4091,203.02278 194.41332,203.02384 C 194.41474,203.02416 194.42216,203.02356 194.42358,203.02384 C 194.42787,203.02448 194.43978,203.02933 194.4441,203.02965 C 194.44554,203.02968 194.45291,203.02965 194.45435,203.02965 C 194.45579,203.02961 194.46317,203.02972 194.46461,203.02965 C 194.46605,203.02954 194.47343,203.02979 194.47487,203.02965 z "
       id="path2429" />
    <path
       style="opacity:1;fill:#de2ad5;fill-opacity:0.68539327;fill-rule:nonzero;stroke:#ee00e1;stroke-width:1.13553786;stroke-miterlimit:1.10000002;stroke-dasharray:none;stroke-opacity:1"
       d="M 358.65794,171.64236 C 358.65651,171.64251 358.65938,171.64799 358.65794,171.64817 C 358.65651,171.64838 358.64911,171.64792 358.64768,171.64817 C 358.64627,171.64845 358.63884,171.64785 358.63743,171.64817 C 358.63603,171.64855 358.62857,171.65354 358.62717,171.65397 C 358.62579,171.65443 358.61829,171.65347 358.61691,171.65397 C 358.61555,171.6545 358.60801,171.6592 358.60666,171.65977 C 358.60532,171.66041 358.59772,171.6649 358.5964,171.66557 C 358.58069,171.67409 358.56862,171.68674 358.55537,171.70038 L 350.50344,179.97364 C 350.43276,180.04637 350.43276,180.16779 350.50344,180.24052 L 356.70907,180.24052 L 356.70907,203.02969 L 360.64785,203.02969 L 360.64785,180.24052 L 366.85348,180.24052 C 366.92415,180.16779 366.92415,180.04636 366.85348,179.97364 L 358.8118,171.70038 C 358.79855,171.68674 358.77623,171.67409 358.76051,171.66557 C 358.75919,171.6649 358.75159,171.66041 358.75026,171.65977 C 358.7489,171.6592 358.74137,171.6545 358.74,171.65397 C 358.73584,171.65258 358.72371,171.64923 358.71949,171.64817 C 358.71807,171.64785 358.71065,171.64845 358.70923,171.64817 C 358.70494,171.64753 358.69303,171.64268 358.68871,171.64236 C 358.68727,171.64233 358.6799,171.64236 358.67846,171.64236 C 358.67702,171.6424 358.66964,171.64229 358.6682,171.64236 C 358.66676,171.64247 358.65938,171.64222 358.65794,171.64236 z "
       id="path2431" />
    <path
       style="opacity:1;fill:#13f527;fill-opacity:0.68539327;fill-rule:nonzero;stroke:#00ee00;stroke-width:1.13553786;stroke-miterlimit:1.10000002;stroke-dasharray:none;stroke-opacity:1"
       d="M 390.87526,203.02965 C 390.87669,203.0295 390.87382,203.02402 390.87526,203.02384 C 390.87669,203.02363 390.88409,203.02409 390.88552,203.02384 C 390.88693,203.02356 390.89436,203.02416 390.89577,203.02384 C 390.89717,203.02346 390.90463,203.01847 390.90603,203.01804 C 390.90741,203.01758 390.91491,203.01854 390.91629,203.01804 C 390.91765,203.01751 390.92519,203.01281 390.92654,203.01224 C 390.92788,203.0116 390.93548,203.00711 390.9368,203.00644 C 390.95251,202.99792 390.96458,202.98527 390.97783,202.97163 L 399.02976,194.69837 C 399.10044,194.62564 399.10044,194.50422 399.02976,194.43149 L 392.82413,194.43149 L 392.82413,171.64232 L 388.88535,171.64232 L 388.88535,194.43149 L 382.67972,194.43149 C 382.60905,194.50422 382.60905,194.62565 382.67972,194.69837 L 390.7214,202.97163 C 390.73465,202.98527 390.75697,202.99792 390.77269,203.00644 C 390.77401,203.00711 390.78161,203.0116 390.78294,203.01224 C 390.7843,203.01281 390.79183,203.01751 390.7932,203.01804 C 390.79736,203.01943 390.80949,203.02278 390.81371,203.02384 C 390.81513,203.02416 390.82255,203.02356 390.82397,203.02384 C 390.82826,203.02448 390.84017,203.02933 390.84449,203.02965 C 390.84593,203.02968 390.8533,203.02965 390.85474,203.02965 C 390.85618,203.02961 390.86356,203.02972 390.865,203.02965 C 390.86644,203.02954 390.87382,203.02979 390.87526,203.02965 z "
       id="path2433" />
    <path
       style="opacity:1;fill:#de2ad5;fill-opacity:0.68539327;fill-rule:nonzero;stroke:#ee00e1;stroke-width:1.13553786;stroke-miterlimit:1.10000002;stroke-dasharray:none;stroke-opacity:1"
       d="M 536.14173,171.64236 C 536.1403,171.64251 536.14317,171.64799 536.14173,171.64817 C 536.1403,171.64838 536.1329,171.64792 536.13147,171.64817 C 536.13006,171.64845 536.12263,171.64785 536.12122,171.64817 C 536.11982,171.64855 536.11236,171.65354 536.11096,171.65397 C 536.10958,171.65443 536.10208,171.65347 536.1007,171.65397 C 536.09934,171.6545 536.0918,171.6592 536.09045,171.65977 C 536.08911,171.66041 536.08151,171.6649 536.08019,171.66557 C 536.06448,171.67409 536.05241,171.68674 536.03916,171.70038 L 527.98723,179.97364 C 527.91655,180.04637 527.91655,180.16779 527.98723,180.24052 L 534.19286,180.24052 L 534.19286,203.02969 L 538.13164,203.02969 L 538.13164,180.24052 L 544.33727,180.24052 C 544.40794,180.16779 544.40794,180.04636 544.33727,179.97364 L 536.29559,171.70038 C 536.28234,171.68674 536.26002,171.67409 536.2443,171.66557 C 536.24298,171.6649 536.23538,171.66041 536.23405,171.65977 C 536.23269,171.6592 536.22516,171.6545 536.22379,171.65397 C 536.21963,171.65258 536.2075,171.64923 536.20328,171.64817 C 536.20186,171.64785 536.19444,171.64845 536.19302,171.64817 C 536.18873,171.64753 536.17682,171.64268 536.1725,171.64236 C 536.17106,171.64233 536.16369,171.64236 536.16225,171.64236 C 536.16081,171.6424 536.15343,171.64229 536.15199,171.64236 C 536.15055,171.64247 536.14317,171.64222 536.14173,171.64236 z "
       id="path2435" />
    <path
       style="opacity:1;fill:#13f527;fill-opacity:0.68539327;fill-rule:nonzero;stroke:#00ee00;stroke-width:1.13553786;stroke-miterlimit:1.10000002;stroke-dasharray:none;stroke-opacity:1"
       d="M 568.35905,203.02965 C 568.36048,203.0295 568.35761,203.02402 568.35905,203.02384 C 568.36048,203.02363 568.36788,203.02409 568.36931,203.02384 C 568.37072,203.02356 568.37815,203.02416 568.37956,203.02384 C 568.38096,203.02346 568.38842,203.01847 568.38982,203.01804 C 568.3912,203.01758 568.3987,203.01854 568.40008,203.01804 C 568.40144,203.01751 568.40898,203.01281 568.41033,203.01224 C 568.41167,203.0116 568.41927,203.00711 568.42059,203.00644 C 568.4363,202.99792 568.44837,202.98527 568.46162,202.97163 L 576.51355,194.69837 C 576.58423,194.62564 576.58423,194.50422 576.51355,194.43149 L 570.30792,194.43149 L 570.30792,171.64232 L 566.36914,171.64232 L 566.36914,194.43149 L 560.16351,194.43149 C 560.09284,194.50422 560.09284,194.62565 560.16351,194.69837 L 568.20519,202.97163 C 568.21844,202.98527 568.24076,202.99792 568.25648,203.00644 C 568.2578,203.00711 568.2654,203.0116 568.26673,203.01224 C 568.26809,203.01281 568.27562,203.01751 568.27699,203.01804 C 568.28115,203.01943 568.29328,203.02278 568.2975,203.02384 C 568.29892,203.02416 568.30634,203.02356 568.30776,203.02384 C 568.31205,203.02448 568.32396,203.02933 568.32828,203.02965 C 568.32972,203.02968 568.33709,203.02965 568.33853,203.02965 C 568.33997,203.02961 568.34735,203.02972 568.34879,203.02965 C 568.35023,203.02954 568.35761,203.02979 568.35905,203.02965 z "
       id="path2437" />
    <path
       style="fill:none;fill-opacity:0.75;fill-rule:evenodd;stroke:url(#linearGradient2478);stroke-width:4.25702047;stroke-linecap:butt;stroke-linejoin:miter;stroke-miterlimit:2.20000005;stroke-dasharray:none;stroke-opacity:1"
       d="M 161.94606,201.62236 C 160.32629,290.6403 232.08798,281.27977 282.22671,281.15111 C 332.6694,281.64382 389.90218,284.72719 390.36056,198.79392"
       id="path2439"
       sodipodi:nodetypes="ccc" />
    <text
       xml:space="preserve"
       style="font-size:18px;font-style:normal;font-variant:normal;font-weight:normal;font-stretch:normal;text-align:start;line-height:125%;writing-mode:lr-tb;text-anchor:start;fill:#ffffff;fill-opacity:1;stroke:none;stroke-width:1px;stroke-linecap:butt;stroke-linejoin:miter;stroke-opacity:1;font-family:Bitstream Vera Sans"
       x="428.71036"
       y="153.49948"
       id="text2345"
       sodipodi:linespacing="125%"><tspan
         sodipodi:role="line"
         x="428.71036"
         y="153.49948"
         id="tspan1654">Event Manager</tspan></text>
    <text
       xml:space="preserve"
       style="font-size:18px;font-style:normal;font-variant:normal;font-weight:normal;font-stretch:normal;text-align:start;line-height:125%;writing-mode:lr-tb;text-anchor:start;fill:#ffffff;fill-opacity:1;stroke:none;stroke-width:1px;stroke-linecap:butt;stroke-linejoin:miter;stroke-opacity:1;font-family:Bitstream Vera Sans"
       x="251.75635"
       y="154.24677"
       id="text1509"
       sodipodi:linespacing="125%"><tspan
         sodipodi:role="line"
         x="251.75635"
         y="154.24677"
         id="tspan1634">ECMAScript</tspan><tspan
         sodipodi:role="line"
         x="251.75635"
         y="176.74677"
         id="tspan1650">Interpreter</tspan></text>
    <text
       xml:space="preserve"
       style="font-size:18px;font-style:normal;font-variant:normal;font-weight:normal;font-stretch:normal;text-align:start;line-height:125%;writing-mode:lr-tb;text-anchor:start;fill:#ffffff;fill-opacity:1;stroke:none;stroke-width:1px;stroke-linecap:butt;stroke-linejoin:miter;stroke-opacity:1;font-family:Bitstream Vera Sans"
       x="110.03613"
       y="222.2713"
       id="text1515"
       sodipodi:linespacing="125%"><tspan
         sodipodi:role="line"
         id="tspan1517"
         x="110.03613"
         y="222.2713">Process, TCP/IP, File Subsystems, Device Drivers</tspan></text>
    <text
       xml:space="preserve"
       style="font-size:18px;font-style:normal;font-variant:normal;font-weight:normal;font-stretch:normal;text-align:start;line-height:125%;writing-mode:lr-tb;text-anchor:start;fill:#ffffff;fill-opacity:1;stroke:none;stroke-width:1px;stroke-linecap:butt;stroke-linejoin:miter;stroke-opacity:1;font-family:Bitstream Vera Sans"
       x="72.756348"
       y="155.24677"
       id="text1521"
       sodipodi:linespacing="125%"><tspan
         sodipodi:role="line"
         x="72.756348"
         y="155.24677"
         id="tspan1646">Canvas</tspan><tspan
         sodipodi:role="line"
         x="72.756348"
         y="177.74677"
         id="tspan4236">Service</tspan></text>
    <path
       style="fill:none;fill-opacity:1;fill-rule:evenodd;stroke:url(#linearGradient3353);stroke-width:4.3670001;stroke-linecap:butt;stroke-linejoin:miter;stroke-miterlimit:2.20000005;stroke-dasharray:none;stroke-opacity:1"
       d="M 451.60432,96.83599 C 422.81617,96.38822 390.15285,93.58611 389.89125,171.68072"
       id="path2480"
       sodipodi:nodetypes="cc" />
    <text
       xml:space="preserve"
       style="font-size:18px;font-style:normal;font-variant:normal;font-weight:normal;font-stretch:normal;text-align:start;line-height:125%;writing-mode:lr-tb;text-anchor:start;fill:#ffffff;fill-opacity:1;stroke:none;stroke-width:1px;stroke-linecap:butt;stroke-linejoin:miter;stroke-opacity:1;font-family:Bitstream Vera Sans"
       x="289.84082"
       y="103.96582"
       id="text4238"
       sodipodi:linespacing="125%"><tspan
         sodipodi:role="line"
         id="tspan4240"
         x="289.84082"
         y="103.96582"
         style="fill:#000000;fill-opacity:1">Shell.js</tspan></text>
  </g>
</svg>
