<?xml version="1.0" encoding="UTF-8" standalone="no"?>
<!-- Created with Inkscape (http://www.inkscape.org/) -->
<svg
   xmlns:dc="http://purl.org/dc/elements/1.1/"
   xmlns:cc="http://web.resource.org/cc/"
   xmlns:rdf="http://www.w3.org/1999/02/22-rdf-syntax-ns#"
   xmlns:svg="http://www.w3.org/2000/svg"
   xmlns="http://www.w3.org/2000/svg"
   xmlns:xlink="http://www.w3.org/1999/xlink"
   xmlns:sodipodi="http://inkscape.sourceforge.net/DTD/sodipodi-0.dtd"
   xmlns:inkscape="http://www.inkscape.org/namespaces/inkscape"
   width="640"
   height="320"
   id="svg2283"
   sodipodi:version="0.32"
   inkscape:version="0.43"
   sodipodi:docbase="/home/shiki/www/XV_Semana_Infomatica"
   sodipodi:docname="es-kernel.svg"
   version="1.0">
  <defs
     id="defs2285">
    <linearGradient
       id="linearGradient2460">
      <stop
         style="stop-color:#1af081;stop-opacity:1;"
         offset="0"
         id="stop2462" />
      <stop
         style="stop-color:#e21ae0;stop-opacity:0.70103091;"
         offset="1"
         id="stop2464" />
    </linearGradient>
    <marker
       inkscape:stockid="TriangleOutS"
       orient="auto"
       refY="0"
       refX="0"
       id="TriangleOutS"
       style="overflow:visible">
      <path
         id="path2271"
         d="M 5.77,0 L -2.88,5 L -2.88,-5 L 5.77,0 z "
         style="fill-rule:evenodd;stroke:#000000;stroke-width:1pt;marker-start:none"
         transform="scale(0.2,0.2)" />
    </marker>
    <marker
       inkscape:stockid="DistanceOut"
       orient="auto"
       refY="0"
       refX="0"
       id="DistanceOut"
       style="overflow:visible">
      <g
         id="g2316"
         transform="matrix(-0.6,0,0,0.6,-4.8,0)">
        <path
           id="path2318"
           d="M 0,0 L 5,-5 L -12.5,0 L 5,5 L 0,0 z "
           style="fill-rule:evenodd;stroke:#000000;stroke-width:1pt;marker-start:none" />
        <path
           id="path2320"
           d="M -14.759949,-7 L -14.759949,65"
           style="fill:none;fill-opacity:0.75;fill-rule:evenodd;stroke:#000000;stroke-width:1.2pt;marker-start:none" />
      </g>
    </marker>
    <marker
       inkscape:stockid="Arrow1Mstart"
       orient="auto"
       refY="0"
       refX="0"
       id="Arrow1Mstart"
       style="overflow:visible">
      <path
         id="path2372"
         d="M 0,0 L 5,-5 L -12.5,0 L 5,5 L 0,0 z "
         style="fill-rule:evenodd;stroke:#000000;stroke-width:1pt;marker-start:none"
         transform="scale(0.4,0.4)" />
    </marker>
    <marker
       inkscape:stockid="Arrow2Lend"
       orient="auto"
       refY="0"
       refX="0"
       id="Arrow2Lend"
       style="overflow:visible">
      <path
         id="path2357"
         style="font-size:12px;fill-rule:evenodd;stroke-width:0.625;stroke-linejoin:round"
         d="M 8.7185878,4.0337352 L -2.2072895,0.016013256 L 8.7185884,-4.0017078 C 6.97309,-1.6296469 6.9831476,1.6157441 8.7185878,4.0337352 z "
         transform="matrix(-1.1,0,0,-1.1,5.5,0)" />
    </marker>
    <linearGradient
       inkscape:collect="always"
       xlink:href="#linearGradient2460"
       id="linearGradient2478"
       x1="160.36053"
       y1="377.15335"
       x2="393.33228"
       y2="377.15335"
       gradientUnits="userSpaceOnUse"
       gradientTransform="matrix(-1,0,0,1.487855,552.9857,-315.6218)" />
  </defs>
  <sodipodi:namedview
     id="base"
     pagecolor="#ffffff"
     bordercolor="#666666"
     borderopacity="1.0"
     inkscape:pageopacity="0.0"
     inkscape:pageshadow="2"
     inkscape:zoom="1"
     inkscape:cx="262.70847"
     inkscape:cy="109.31193"
     inkscape:current-layer="layer1"
     inkscape:document-units="px"
     inkscape:window-width="822"
     inkscape:window-height="1102"
     inkscape:window-x="736"
     inkscape:window-y="309" />
  <metadata
     id="metadata2288">
    <rdf:RDF>
      <cc:Work
         rdf:about="">
        <dc:format>image/svg+xml</dc:format>
        <dc:type
           rdf:resource="http://purl.org/dc/dcmitype/StillImage" />
      </cc:Work>
    </rdf:RDF>
  </metadata>
  <g
     id="layer1"
     inkscape:label="Layer 1"
     inkscape:groupmode="layer">
    <path
       style="fill:#78c2f4;fill-opacity:1;fill-rule:evenodd;stroke:none;stroke-width:0.64296138px;stroke-linecap:butt;stroke-linejoin:miter;stroke-opacity:1"
       d="M 58.79438,75.85495 L 227.20562,75.85495 L 227.20562,128.14505 L 58.79438,128.14505 L 58.79438,75.85495 z "
       id="path1543" />
    <path
       style="fill:#78c2f4;fill-opacity:1;fill-rule:evenodd;stroke:none;stroke-width:0.64296138px;stroke-linecap:butt;stroke-linejoin:miter;stroke-opacity:1"
       d="M 237.79438,75.85495 L 406.20562,75.85495 L 406.20562,128.14505 L 237.79438,128.14505 L 237.79438,75.85495 z "
       id="path1751" />
    <path
       style="fill:#78c2f4;fill-opacity:1;fill-rule:evenodd;stroke:none;stroke-width:0.64296138px;stroke-linecap:butt;stroke-linejoin:miter;stroke-opacity:1"
       d="M 415.79438,75.85495 L 584.20562,75.85495 L 584.20562,128.14505 L 415.79438,128.14505 L 415.79438,75.85495 z "
       id="path1753" />
    <rect
       style="fill:#389ced;fill-opacity:1;fill-rule:evenodd;stroke:none;stroke-width:0.64296138px;stroke-linecap:butt;stroke-linejoin:miter;stroke-opacity:1"
       id="rect2343"
       width="168.41121"
       height="52.290096"
       x="415.74841"
       y="136.38861" />
    <rect
       style="fill:#389ced;fill-opacity:1;fill-rule:evenodd;stroke:none;stroke-width:0.64296138px;stroke-linecap:butt;stroke-linejoin:miter;stroke-opacity:1"
       id="rect1507"
       width="168.41121"
       height="52.290096"
       x="237.79437"
       y="136.13589" />
    <rect
       style="fill:#004f9f;fill-opacity:1;fill-rule:evenodd;stroke:none;stroke-width:0.64296138px;stroke-linecap:butt;stroke-linejoin:miter;stroke-opacity:1"
       id="rect1513"
       width="523.41119"
       height="52.290096"
       x="59.294403"
       y="193.57401" />
    <rect
       style="fill:#389ced;fill-opacity:1;fill-rule:evenodd;stroke:none;stroke-width:0.64296138px;stroke-linecap:butt;stroke-linejoin:miter;stroke-opacity:1"
       id="rect1519"
       width="168.41121"
       height="52.290096"
       x="58.794403"
       y="136.13589" />
    <text
       xml:space="preserve"
       style="font-size:18px;font-style:normal;font-variant:normal;font-weight:normal;font-stretch:normal;text-align:start;line-height:125%;writing-mode:lr-tb;text-anchor:start;fill:#ffffff;fill-opacity:1;stroke:none;stroke-width:1px;stroke-linecap:butt;stroke-linejoin:miter;stroke-opacity:1;font-family:Bitstream Vera Sans"
       x="94.097656"
       y="107.70161"
       id="text2393"
       sodipodi:linespacing="125%"><tspan
         sodipodi:role="line"
         id="tspan2395"
         x="94.097656"
         y="107.70161"
         style="fill:#000000;fill-opacity:1">Local Apps</tspan></text>
    <text
       xml:space="preserve"
       style="font-size:18px;font-style:normal;font-variant:normal;font-weight:normal;font-stretch:normal;text-align:start;line-height:125%;writing-mode:lr-tb;text-anchor:start;fill:#ffffff;fill-opacity:1;stroke:none;stroke-width:1px;stroke-linecap:butt;stroke-linejoin:miter;stroke-opacity:1;font-family:Bitstream Vera Sans"
       x="273.17236"
       y="106.96582"
       id="text1628"
       sodipodi:linespacing="125%"><tspan
         sodipodi:role="line"
         id="tspan1630"
         x="273.17236"
         y="106.96582"
         style="fill:#000000;fill-opacity:1">Web Pages</tspan></text>
    <text
       xml:space="preserve"
       style="font-size:18px;font-style:normal;font-variant:normal;font-weight:normal;font-stretch:normal;text-align:start;line-height:125%;writing-mode:lr-tb;text-anchor:start;fill:#ffffff;fill-opacity:1;stroke:none;stroke-width:1px;stroke-linecap:butt;stroke-linejoin:miter;stroke-opacity:1;font-family:Bitstream Vera Sans"
       x="455.39111"
       y="105.96582"
       id="text1640"
       sodipodi:linespacing="125%"><tspan
         sodipodi:role="line"
         id="tspan1642"
         x="455.39111"
         y="105.96582"
         style="fill:#000000;fill-opacity:1">Web Apps</tspan></text>
    <path
       style="opacity:1;fill:#de2ad5;fill-opacity:0.68539327;fill-rule:nonzero;stroke:#ee00e1;stroke-width:1.13553786;stroke-miterlimit:1.10000002;stroke-dasharray:none;stroke-opacity:1"
       d="M 162.25755,174.64236 C 162.25612,174.64251 162.25899,174.64799 162.25755,174.64817 C 162.25612,174.64838 162.24872,174.64792 162.24729,174.64817 C 162.24588,174.64845 162.23845,174.64785 162.23704,174.64817 C 162.23564,174.64855 162.22818,174.65354 162.22678,174.65397 C 162.2254,174.65443 162.2179,174.65347 162.21652,174.65397 C 162.21516,174.6545 162.20762,174.6592 162.20627,174.65977 C 162.20493,174.66041 162.19733,174.6649 162.19601,174.66557 C 162.1803,174.67409 162.16823,174.68674 162.15498,174.70038 L 154.10305,182.97364 C 154.03237,183.04637 154.03237,183.16779 154.10305,183.24052 L 160.30868,183.24052 L 160.30868,206.02969 L 164.24746,206.02969 L 164.24746,183.24052 L 170.45309,183.24052 C 170.52376,183.16779 170.52376,183.04636 170.45309,182.97364 L 162.41141,174.70038 C 162.39816,174.68674 162.37584,174.67409 162.36012,174.66557 C 162.3588,174.6649 162.3512,174.66041 162.34987,174.65977 C 162.34851,174.6592 162.34098,174.6545 162.33961,174.65397 C 162.33545,174.65258 162.32332,174.64923 162.3191,174.64817 C 162.31768,174.64785 162.31026,174.64845 162.30884,174.64817 C 162.30455,174.64753 162.29264,174.64268 162.28832,174.64236 C 162.28688,174.64233 162.27951,174.64236 162.27807,174.64236 C 162.27663,174.6424 162.26925,174.64229 162.26781,174.64236 C 162.26637,174.64247 162.25899,174.64222 162.25755,174.64236 z "
       id="rect2417" />
    <path
       style="opacity:1;fill:#13f527;fill-opacity:0.68539327;fill-rule:nonzero;stroke:#00ee00;stroke-width:1.13553786;stroke-miterlimit:1.10000002;stroke-dasharray:none;stroke-opacity:1"
       d="M 194.47487,206.02965 C 194.4763,206.0295 194.47343,206.02402 194.47487,206.02384 C 194.4763,206.02363 194.4837,206.02409 194.48513,206.02384 C 194.48654,206.02356 194.49397,206.02416 194.49538,206.02384 C 194.49678,206.02346 194.50424,206.01847 194.50564,206.01804 C 194.50702,206.01758 194.51452,206.01854 194.5159,206.01804 C 194.51726,206.01751 194.5248,206.01281 194.52615,206.01224 C 194.52749,206.0116 194.53509,206.00711 194.53641,206.00644 C 194.55212,205.99792 194.56419,205.98527 194.57744,205.97163 L 202.62937,197.69837 C 202.70005,197.62564 202.70005,197.50422 202.62937,197.43149 L 196.42374,197.43149 L 196.42374,174.64232 L 192.48496,174.64232 L 192.48496,197.43149 L 186.27933,197.43149 C 186.20866,197.50422 186.20866,197.62565 186.27933,197.69837 L 194.32101,205.97163 C 194.33426,205.98527 194.35658,205.99792 194.3723,206.00644 C 194.37362,206.00711 194.38122,206.0116 194.38255,206.01224 C 194.38391,206.01281 194.39144,206.01751 194.39281,206.01804 C 194.39697,206.01943 194.4091,206.02278 194.41332,206.02384 C 194.41474,206.02416 194.42216,206.02356 194.42358,206.02384 C 194.42787,206.02448 194.43978,206.02933 194.4441,206.02965 C 194.44554,206.02968 194.45291,206.02965 194.45435,206.02965 C 194.45579,206.02961 194.46317,206.02972 194.46461,206.02965 C 194.46605,206.02954 194.47343,206.02979 194.47487,206.02965 z "
       id="path2429" />
    <path
       style="opacity:1;fill:#de2ad5;fill-opacity:0.68539327;fill-rule:nonzero;stroke:#ee00e1;stroke-width:1.13553786;stroke-miterlimit:1.10000002;stroke-dasharray:none;stroke-opacity:1"
       d="M 358.65794,174.64236 C 358.65651,174.64251 358.65938,174.64799 358.65794,174.64817 C 358.65651,174.64838 358.64911,174.64792 358.64768,174.64817 C 358.64627,174.64845 358.63884,174.64785 358.63743,174.64817 C 358.63603,174.64855 358.62857,174.65354 358.62717,174.65397 C 358.62579,174.65443 358.61829,174.65347 358.61691,174.65397 C 358.61555,174.6545 358.60801,174.6592 358.60666,174.65977 C 358.60532,174.66041 358.59772,174.6649 358.5964,174.66557 C 358.58069,174.67409 358.56862,174.68674 358.55537,174.70038 L 350.50344,182.97364 C 350.43276,183.04637 350.43276,183.16779 350.50344,183.24052 L 356.70907,183.24052 L 356.70907,206.02969 L 360.64785,206.02969 L 360.64785,183.24052 L 366.85348,183.24052 C 366.92415,183.16779 366.92415,183.04636 366.85348,182.97364 L 358.8118,174.70038 C 358.79855,174.68674 358.77623,174.67409 358.76051,174.66557 C 358.75919,174.6649 358.75159,174.66041 358.75026,174.65977 C 358.7489,174.6592 358.74137,174.6545 358.74,174.65397 C 358.73584,174.65258 358.72371,174.64923 358.71949,174.64817 C 358.71807,174.64785 358.71065,174.64845 358.70923,174.64817 C 358.70494,174.64753 358.69303,174.64268 358.68871,174.64236 C 358.68727,174.64233 358.6799,174.64236 358.67846,174.64236 C 358.67702,174.6424 358.66964,174.64229 358.6682,174.64236 C 358.66676,174.64247 358.65938,174.64222 358.65794,174.64236 z "
       id="path2431" />
    <path
       style="opacity:1;fill:#13f527;fill-opacity:0.68539327;fill-rule:nonzero;stroke:#00ee00;stroke-width:1.13553786;stroke-miterlimit:1.10000002;stroke-dasharray:none;stroke-opacity:1"
       d="M 390.87526,206.02965 C 390.87669,206.0295 390.87382,206.02402 390.87526,206.02384 C 390.87669,206.02363 390.88409,206.02409 390.88552,206.02384 C 390.88693,206.02356 390.89436,206.02416 390.89577,206.02384 C 390.89717,206.02346 390.90463,206.01847 390.90603,206.01804 C 390.90741,206.01758 390.91491,206.01854 390.91629,206.01804 C 390.91765,206.01751 390.92519,206.01281 390.92654,206.01224 C 390.92788,206.0116 390.93548,206.00711 390.9368,206.00644 C 390.95251,205.99792 390.96458,205.98527 390.97783,205.97163 L 399.02976,197.69837 C 399.10044,197.62564 399.10044,197.50422 399.02976,197.43149 L 392.82413,197.43149 L 392.82413,174.64232 L 388.88535,174.64232 L 388.88535,197.43149 L 382.67972,197.43149 C 382.60905,197.50422 382.60905,197.62565 382.67972,197.69837 L 390.7214,205.97163 C 390.73465,205.98527 390.75697,205.99792 390.77269,206.00644 C 390.77401,206.00711 390.78161,206.0116 390.78294,206.01224 C 390.7843,206.01281 390.79183,206.01751 390.7932,206.01804 C 390.79736,206.01943 390.80949,206.02278 390.81371,206.02384 C 390.81513,206.02416 390.82255,206.02356 390.82397,206.02384 C 390.82826,206.02448 390.84017,206.02933 390.84449,206.02965 C 390.84593,206.02968 390.8533,206.02965 390.85474,206.02965 C 390.85618,206.02961 390.86356,206.02972 390.865,206.02965 C 390.86644,206.02954 390.87382,206.02979 390.87526,206.02965 z "
       id="path2433" />
    <path
       style="opacity:1;fill:#de2ad5;fill-opacity:0.68539327;fill-rule:nonzero;stroke:#ee00e1;stroke-width:1.13553786;stroke-miterlimit:1.10000002;stroke-dasharray:none;stroke-opacity:1"
       d="M 536.14173,174.64236 C 536.1403,174.64251 536.14317,174.64799 536.14173,174.64817 C 536.1403,174.64838 536.1329,174.64792 536.13147,174.64817 C 536.13006,174.64845 536.12263,174.64785 536.12122,174.64817 C 536.11982,174.64855 536.11236,174.65354 536.11096,174.65397 C 536.10958,174.65443 536.10208,174.65347 536.1007,174.65397 C 536.09934,174.6545 536.0918,174.6592 536.09045,174.65977 C 536.08911,174.66041 536.08151,174.6649 536.08019,174.66557 C 536.06448,174.67409 536.05241,174.68674 536.03916,174.70038 L 527.98723,182.97364 C 527.91655,183.04637 527.91655,183.16779 527.98723,183.24052 L 534.19286,183.24052 L 534.19286,206.02969 L 538.13164,206.02969 L 538.13164,183.24052 L 544.33727,183.24052 C 544.40794,183.16779 544.40794,183.04636 544.33727,182.97364 L 536.29559,174.70038 C 536.28234,174.68674 536.26002,174.67409 536.2443,174.66557 C 536.24298,174.6649 536.23538,174.66041 536.23405,174.65977 C 536.23269,174.6592 536.22516,174.6545 536.22379,174.65397 C 536.21963,174.65258 536.2075,174.64923 536.20328,174.64817 C 536.20186,174.64785 536.19444,174.64845 536.19302,174.64817 C 536.18873,174.64753 536.17682,174.64268 536.1725,174.64236 C 536.17106,174.64233 536.16369,174.64236 536.16225,174.64236 C 536.16081,174.6424 536.15343,174.64229 536.15199,174.64236 C 536.15055,174.64247 536.14317,174.64222 536.14173,174.64236 z "
       id="path2435" />
    <path
       style="opacity:1;fill:#13f527;fill-opacity:0.68539327;fill-rule:nonzero;stroke:#00ee00;stroke-width:1.13553786;stroke-miterlimit:1.10000002;stroke-dasharray:none;stroke-opacity:1"
       d="M 568.35905,206.02965 C 568.36048,206.0295 568.35761,206.02402 568.35905,206.02384 C 568.36048,206.02363 568.36788,206.02409 568.36931,206.02384 C 568.37072,206.02356 568.37815,206.02416 568.37956,206.02384 C 568.38096,206.02346 568.38842,206.01847 568.38982,206.01804 C 568.3912,206.01758 568.3987,206.01854 568.40008,206.01804 C 568.40144,206.01751 568.40898,206.01281 568.41033,206.01224 C 568.41167,206.0116 568.41927,206.00711 568.42059,206.00644 C 568.4363,205.99792 568.44837,205.98527 568.46162,205.97163 L 576.51355,197.69837 C 576.58423,197.62564 576.58423,197.50422 576.51355,197.43149 L 570.30792,197.43149 L 570.30792,174.64232 L 566.36914,174.64232 L 566.36914,197.43149 L 560.16351,197.43149 C 560.09284,197.50422 560.09284,197.62565 560.16351,197.69837 L 568.20519,205.97163 C 568.21844,205.98527 568.24076,205.99792 568.25648,206.00644 C 568.2578,206.00711 568.2654,206.0116 568.26673,206.01224 C 568.26809,206.01281 568.27562,206.01751 568.27699,206.01804 C 568.28115,206.01943 568.29328,206.02278 568.2975,206.02384 C 568.29892,206.02416 568.30634,206.02356 568.30776,206.02384 C 568.31205,206.02448 568.32396,206.02933 568.32828,206.02965 C 568.32972,206.02968 568.33709,206.02965 568.33853,206.02965 C 568.33997,206.02961 568.34735,206.02972 568.34879,206.02965 C 568.35023,206.02954 568.35761,206.02979 568.35905,206.02965 z "
       id="path2437" />
    <path
       style="fill:none;fill-opacity:0.75;fill-rule:evenodd;stroke:url(#linearGradient2478);stroke-width:4.25702047;stroke-linecap:butt;stroke-linejoin:miter;stroke-miterlimit:2.20000005;stroke-dasharray:none;stroke-opacity:1"
       d="M 161.94606,204.62236 C 160.32629,293.6403 232.08798,284.27977 282.22671,284.15111 C 332.6694,284.64382 389.90218,287.72719 390.36056,201.79392"
       id="path2439"
       sodipodi:nodetypes="ccc" />
    <text
       xml:space="preserve"
       style="font-size:18px;font-style:normal;font-variant:normal;font-weight:normal;font-stretch:normal;text-align:start;line-height:125%;writing-mode:lr-tb;text-anchor:start;fill:#ffffff;fill-opacity:1;stroke:none;stroke-width:1px;stroke-linecap:butt;stroke-linejoin:miter;stroke-opacity:1;font-family:Bitstream Vera Sans"
       x="428.71036"
       y="156.49948"
       id="text2345"
       sodipodi:linespacing="125%"><tspan
         sodipodi:role="line"
         x="428.71036"
         y="156.49948"
         id="tspan1636">Other</tspan><tspan
         sodipodi:role="line"
         x="428.71036"
         y="178.99948"
         id="tspan1654">Components</tspan></text>
    <text
       xml:space="preserve"
       style="font-size:18px;font-style:normal;font-variant:normal;font-weight:normal;font-stretch:normal;text-align:start;line-height:125%;writing-mode:lr-tb;text-anchor:start;fill:#ffffff;fill-opacity:1;stroke:none;stroke-width:1px;stroke-linecap:butt;stroke-linejoin:miter;stroke-opacity:1;font-family:Bitstream Vera Sans"
       x="251.75635"
       y="157.24677"
       id="text1509"
       sodipodi:linespacing="125%"><tspan
         sodipodi:role="line"
         x="251.75635"
         y="157.24677"
         id="tspan1634">ECMAScript</tspan><tspan
         sodipodi:role="line"
         x="251.75635"
         y="179.74677"
         id="tspan1650">Interpreter</tspan></text>
    <text
       xml:space="preserve"
       style="font-size:18px;font-style:normal;font-variant:normal;font-weight:normal;font-stretch:normal;text-align:start;line-height:125%;writing-mode:lr-tb;text-anchor:start;fill:#ffffff;fill-opacity:1;stroke:none;stroke-width:1px;stroke-linecap:butt;stroke-linejoin:miter;stroke-opacity:1;font-family:Bitstream Vera Sans"
       x="193.03613"
       y="226.2713"
       id="text1515"
       sodipodi:linespacing="125%"><tspan
         sodipodi:role="line"
         id="tspan1517"
         x="193.03613"
         y="226.2713">Component Operating System</tspan></text>
    <text
       xml:space="preserve"
       style="font-size:18px;font-style:normal;font-variant:normal;font-weight:normal;font-stretch:normal;text-align:start;line-height:125%;writing-mode:lr-tb;text-anchor:start;fill:#ffffff;fill-opacity:1;stroke:none;stroke-width:1px;stroke-linecap:butt;stroke-linejoin:miter;stroke-opacity:1;font-family:Bitstream Vera Sans"
       x="72.756348"
       y="158.24677"
       id="text1521"
       sodipodi:linespacing="125%"><tspan
         sodipodi:role="line"
         x="72.756348"
         y="158.24677"
         id="tspan1632">HTML Rendering</tspan><tspan
         sodipodi:role="line"
         x="72.756348"
         y="180.74677"
         id="tspan1646">Engine</tspan></text>
  </g>
</svg>
